<mxfile host="app.diagrams.net" modified="2024-03-07T21:24:14.959Z" agent="Mozilla/5.0 (X11; Linux x86_64) AppleWebKit/537.36 (KHTML, like Gecko) Chrome/118.0.0.0 Safari/537.36" version="24.0.2" etag="0tAfdS1vV7a0DEopaqi2" type="github">
  <diagram name="Page-1" id="tCP9_q1zxSBrFDww197O">
    <mxGraphModel>
      <root>
        <mxCell id="0" />
        <mxCell id="1" parent="0" />
      </root>
    </mxGraphModel>
  </diagram>
</mxfile>
